<?xml version="1.0" encoding="utf-8"?>
<!-- Generator: Adobe Illustrator 14.0.0, SVG Export Plug-In  -->
<!DOCTYPE svg PUBLIC "-//W3C//DTD SVG 1.1//EN" "http://www.w3.org/Graphics/SVG/1.1/DTD/svg11.dtd" [
	<!ENTITY ns_flows "http://ns.adobe.com/Flows/1.0/">
]>
<svg version="1.1"
	 xmlns="http://www.w3.org/2000/svg" xmlns:xlink="http://www.w3.org/1999/xlink" xmlns:a="http://ns.adobe.com/AdobeSVGViewerExtensions/3.0/"
	 x="0px" y="0px" width="179px" height="297px" viewBox="-0.889 -0.827 179 297" enable-background="new -0.889 -0.827 179 297"
	 xml:space="preserve">
<defs>
</defs>
<path id="rightwing" fill-rule="evenodd" clip-rule="evenodd" fill="#8E8E8E" d="M140.492,0.06c7.004-0.789,7.976,6.449,7.742,11.756
	c-0.404,9.198-0.338,18.224,1.147,25.807c0.608,3.103,1.964,6.021,2.007,8.315c0.142,7.553-6.143,11.406-10.036,14.624
	c1.874,0.516,4.528,0.25,6.021,1.147c0.562,1.8,0.287,4.739,0,6.595c1.878,0.512,4.727,0.052,6.022,1.147
	c0.355,2.227-0.734,2.39-0.574,4.014c0.297,3.014,4.187,4.201,4.301,6.595c0.087,1.83-1.131,2.254-2.007,4.014
	c0.601,1.12,2.224,1.217,2.294,2.868c-2.314,2.323-4.221,4.167-1.434,6.882c5.782,5.629,20.366,8.828,21.792,18.638
	c-3.502,3.127-7.314-0.576-10.036-2.58c-3.017-2.222-5.137-5.491-7.742-7.742c-3.292-2.845-9.377-7.341-12.33-2.007
	c-0.286,1.624,0.859,1.817,0.573,3.441c-6.034-0.682-7.664,3.041-9.749,6.309c-4.874-0.467-6.577-5.351-12.33-4.015
	c-1.112-1.008-1.807-0.714-3.44-0.287c-0.275-1.541-1.608-2.024-3.154-2.294c-1.511-7.377-6.613-11.164-11.469-15.197
	c-1.333,5.835-4.872,9.466-11.756,9.75c-5.848-7.509-8.327-22.954-5.448-35.556c2.034-1.406,4.466-2.415,8.028-2.293
	C103.794,35.875,114.477,2.986,140.492,0.06z M138.198,6.081c3.614,0.114,5.161,2.294,4.588,6.595
	C146.314,8.86,141.758,0.469,138.198,6.081z M129.883,7.228c-7.018,3.114-12.115,10.632-15.484,18.352
	c1.582,0.181,2.798-2.551,4.588-4.015c1.391-1.137,3.625-1.786,4.875-3.154C126.727,15.272,126.55,9.863,129.883,7.228z
	 M139.059,9.808c-6.351,3.972-8.565,12.08-11.469,19.499C133.29,26.02,139.659,19.397,139.059,9.808z M140.492,20.418
	c3.448-0.656,3.992,4.119,2.295,6.021C146.669,26.256,144.726,15.939,140.492,20.418z M124.722,20.704
	c-2.703,4.404-7.315,6.887-10.896,10.61c-7.782,8.089-10.694,20.228-13.189,32.688c4.875-6.838,9.852-13.346,15.771-19.785
	c1.824-1.985,4.688-3.978,5.734-6.021C124.615,33.36,123.46,27.378,124.722,20.704z M140.492,24.146
	c-1.247-0.005-2.58-0.095-3.44,0.287c-2.079,4.038-5.662,6.572-10.036,8.315c-0.211,1.127-0.598,2.078-0.86,3.154
	C132.071,33.119,138.433,30.783,140.492,24.146z M145.94,32.748c-0.9,1.872-1.587,3.957-2.581,5.735
	C146.115,38.403,146.335,35.13,145.94,32.748z M119.847,44.217c5.515,0.449,9.885-2.731,15.484-3.154
	c1.481-3.01,5.208-3.775,6.308-7.168C131.676,33.51,125.402,39.244,119.847,44.217z M144.22,42.783
	c0.62,2.816-1.581,4.783-3.728,5.735C144.774,50.699,149.848,43.72,144.22,42.783z M111.532,53.679
	c5.488-2.063,11.375-3.726,18.064-4.587c1.436-2.483,4.901-2.937,6.881-4.875C125.557,43.469,116.279,48.264,111.532,53.679z
	 M108.664,57.693c4.639,0.618,10.223,0.291,14.337,1.434c2.364-1.842,4.584-3.826,7.455-5.161
	C122.433,52.285,113.676,54.488,108.664,57.693z M138.198,54.827c-3.551,0.463-4.237,3.791-8.029,4.014
	C133.854,59.656,137.951,58.404,138.198,54.827z M103.79,63.715c2.713-1.841,11.866,1.929,12.043-3.154
	C110.912,59.962,105.269,60.039,103.79,63.715z M118.987,61.708c0.735,1.386-0.361,2.883,0,3.728
	c2.413,0.023,3.681-1.099,3.441-3.728C121.77,61.26,119.644,61.26,118.987,61.708z M126.442,65.149
	c4.131-0.262,11.149,1.794,14.624-0.574C138.902,59.597,128.462,62.571,126.442,65.149z M130.743,67.729
	c3.392,3.107,7.978,5.021,14.624,4.875C143.719,68.997,137.291,66.465,130.743,67.729z M110.098,71.744
	c4.567,4.179,17.75,5.26,23.226,1.147c-3.343-2.21-6.873-3.979-12.043-3.154C118.059,70.251,114.071,72.772,110.098,71.744z
	 M108.377,74.325c-0.51,0.21-0.042,0.521,0,0.86c9.82,7.002,20.793,12.85,34.695,15.77c-3.661-4.464-6.747-9.501-11.469-12.903
	C122.575,78.898,114.585,77.152,108.377,74.325z M135.618,76.045c2.602,2.493,9.007,2.613,13.763,2.006
	C147.247,74.296,140.858,76.544,135.618,76.045z M109.811,78.339c-0.417,0.127,0.03,0.251,0,0.573
	c3.927,3.164,8.375,5.48,12.043,8.889c3.599,3.344,7.162,6.836,8.889,12.042c1.497,0.511,2.832,1.182,3.728,2.294
	c0.022-6.347-5.445-10.347-9.749-13.764C119.955,84.591,114.861,81.188,109.811,78.339z M136.191,79.199
	c1.736,2.853,7.118,4.542,12.33,4.874c0.125-0.985-0.114-1.607-0.287-2.293C144.942,80.197,139.04,81.225,136.191,79.199z
	 M152.535,81.206c-0.597,0.168-0.927,0.603-1.434,0.86c-0.083,1.23,0.399,1.894,0.86,2.581
	C152.45,83.797,152.277,82.286,152.535,81.206z M110.098,81.493c-0.823,0.567,0.1,1.79,0,2.581
	c4.422,2.556,7.589,6.366,8.889,12.043c0.478,0,0.956,0,1.434,0c0.822,2.046,2.253,3.482,3.441,5.162
	c1.73-0.182,1.971-1.853,4.301-1.434C125.321,90.547,116.823,86.906,110.098,81.493z M141.926,85.221
	c0.464,2.119,3.011,4.633,6.021,5.161c0.086-1.33-0.003-2.483-0.574-3.154C144.921,87.196,143.232,86.399,141.926,85.221z
	 M149.668,86.654c0.104,1.617,0.925,2.515,1.434,3.728c0.799-0.634,1.018-1.85,1.434-2.867
	C151.366,87.441,151.119,86.445,149.668,86.654z M127.589,88.087c2.791,2.943,5.306,6.164,10.036,7.169
	C135.062,92.085,132.625,88.787,127.589,88.087z M140.492,93.249c0.548,0.982,0.035,3.024,2.007,2.581
	c0.331-0.339,0.325-1.013,0.288-1.721C141.979,93.865,141.609,93.183,140.492,93.249z M144.22,98.697
	c1.146-1.151,3.118-2.994,3.441-4.014C145.982,94.4,144.06,96.201,144.22,98.697z M136.765,98.124c-0.664,0.637,0.098,1.118,0,2.007
	c0.811,0.237,0.743-0.404,1.434-0.287C138.23,98.761,137.637,98.303,136.765,98.124z M140.492,101.564
	c-0.926-0.532-2.349,0.891-2.293,2.294C139.033,103.164,139.287,101.888,140.492,101.564z"/>
<path id="leftwing" fill-rule="evenodd" clip-rule="evenodd" fill="#8E8E8E" d="M78.853,59.988c3.563-0.122,5.994,0.887,8.029,2.293
	c2.879,12.602,0.4,28.047-5.448,35.556c-6.885-0.284-10.423-3.914-11.756-9.75c-4.857,4.033-9.958,7.82-11.47,15.197
	c-1.546,0.27-2.878,0.754-3.154,2.294c-1.633-0.428-2.328-0.722-3.44,0.287c-5.753-1.336-7.455,3.548-12.33,4.015
	c-2.085-3.268-3.715-6.991-9.749-6.309c-0.286-1.624,0.859-1.817,0.573-3.441c-2.952-5.334-9.038-0.838-12.33,2.007
	c-2.605,2.251-4.726,5.521-7.742,7.742c-2.722,2.004-6.533,5.707-10.036,2.58c1.426-9.81,16.01-13.008,21.792-18.638
	c2.787-2.714,0.88-4.559-1.434-6.882c0.07-1.65,1.693-1.748,2.294-2.868c-0.876-1.759-2.095-2.184-2.007-4.014
	c0.114-2.394,4.003-3.581,4.301-6.595c0.16-1.625-0.929-1.787-0.574-4.014c1.295-1.095,4.145-0.635,6.022-1.147
	c-0.286-1.856-0.562-4.795,0-6.595c1.493-0.896,4.147-0.631,6.021-1.147c-3.893-3.218-10.177-7.071-10.036-14.624
	c0.043-2.294,1.4-5.212,2.007-8.315c1.485-7.583,1.551-16.609,1.147-25.807C29.301,6.508,30.272-0.729,37.276,0.06
	C63.292,2.986,73.974,35.875,78.853,59.988z M34.982,12.676c-0.573-4.301,0.974-6.481,4.587-6.595
	C36.011,0.469,31.454,8.86,34.982,12.676z M53.907,18.411c1.25,1.368,3.484,2.017,4.875,3.154c1.79,1.463,3.006,4.196,4.588,4.015
	C60,17.86,54.904,10.341,47.885,7.228C51.219,9.863,51.042,15.272,53.907,18.411z M50.179,29.307
	c-2.904-7.418-5.119-15.526-11.47-19.499C38.109,19.397,44.479,26.02,50.179,29.307z M34.982,26.439
	c-1.698-1.902-1.154-6.677,2.294-6.021C33.042,15.939,31.099,26.256,34.982,26.439z M55.627,38.195
	c1.046,2.044,3.91,4.036,5.734,6.021c5.918,6.439,10.895,12.947,15.771,19.785c-2.496-12.46-5.408-24.599-13.19-32.688
	c-3.582-3.723-8.194-6.206-10.896-10.61C54.309,27.378,53.153,33.36,55.627,38.195z M51.613,35.901
	c-0.262-1.076-0.649-2.027-0.86-3.154c-4.374-1.744-7.957-4.278-10.036-8.315c-0.861-0.382-2.193-0.292-3.44-0.287
	C39.335,30.783,45.697,33.119,51.613,35.901z M34.409,38.482c-0.994-1.778-1.681-3.863-2.581-5.735
	C31.433,35.13,31.653,38.403,34.409,38.482z M36.129,33.895c1.099,3.393,4.826,4.158,6.308,7.168
	c5.599,0.423,9.969,3.603,15.483,3.154C52.366,39.244,46.092,33.51,36.129,33.895z M37.276,48.518
	c-2.147-0.952-4.348-2.918-3.728-5.735C27.92,43.72,32.994,50.699,37.276,48.518z M41.291,44.217
	c1.98,1.938,5.446,2.392,6.881,4.875c6.69,0.861,12.577,2.524,18.064,4.587C61.49,48.264,52.211,43.469,41.291,44.217z
	 M47.312,53.966c2.871,1.335,5.091,3.319,7.455,5.161c4.114-1.143,9.698-0.816,14.337-1.434
	C64.093,54.488,55.335,52.285,47.312,53.966z M47.599,58.841c-3.792-0.224-4.479-3.551-8.029-4.014
	C39.817,58.404,43.914,59.656,47.599,58.841z M61.936,60.561c0.178,5.083,9.331,1.313,12.043,3.154
	C72.499,60.039,66.856,59.962,61.936,60.561z M55.34,61.708c-0.239,2.629,1.029,3.75,3.441,3.728c0.361-0.845-0.735-2.341,0-3.728
	C58.124,61.26,55.998,61.26,55.34,61.708z M36.702,64.575c3.475,2.368,10.493,0.312,14.624,0.574
	C49.306,62.571,38.867,59.597,36.702,64.575z M32.402,72.604c6.646,0.146,11.231-1.767,14.623-4.875
	C40.478,66.465,34.049,68.997,32.402,72.604z M56.488,69.736c-5.171-0.825-8.7,0.944-12.043,3.154
	c5.477,4.113,18.659,3.032,23.226-1.147C63.697,72.772,59.709,70.251,56.488,69.736z M46.165,78.052
	c-4.723,3.402-7.809,8.439-11.47,12.903c13.902-2.92,24.875-8.768,34.695-15.77c0.042-0.339,0.511-0.65,0-0.86
	C63.184,77.152,55.193,78.898,46.165,78.052z M28.387,78.052c4.756,0.606,11.162,0.487,13.764-2.006
	C36.91,76.544,30.521,74.296,28.387,78.052z M53.046,88.375c-4.304,3.417-9.771,7.417-9.749,13.764
	c0.895-1.112,2.23-1.784,3.727-2.294c1.728-5.207,5.29-8.699,8.889-12.042c3.669-3.409,8.116-5.725,12.043-8.889
	c-0.029-0.322,0.417-0.446,0-0.573C62.907,81.188,57.813,84.591,53.046,88.375z M29.534,81.78c-0.173,0.687-0.412,1.308-0.287,2.293
	c5.212-0.333,10.594-2.021,12.33-4.874C38.729,81.225,32.827,80.197,29.534,81.78z M25.806,84.647
	c0.461-0.687,0.944-1.351,0.86-2.581c-0.507-0.257-0.837-0.692-1.434-0.86C25.492,82.286,25.318,83.797,25.806,84.647z
	 M49.606,99.844c2.331-0.418,2.571,1.252,4.301,1.434c1.188-1.679,2.619-3.116,3.441-5.162c0.478,0,0.956,0,1.434,0
	c1.3-5.677,4.468-9.487,8.889-12.043c-0.1-0.791,0.823-2.013,0-2.581C60.945,86.906,52.447,90.547,49.606,99.844z M30.395,87.228
	c-0.571,0.671-0.661,1.825-0.574,3.154c3.01-0.528,5.558-3.042,6.021-5.161C34.536,86.399,32.847,87.196,30.395,87.228z
	 M25.233,87.515c0.416,1.018,0.634,2.233,1.434,2.867c0.509-1.212,1.331-2.111,1.434-3.728
	C26.649,86.445,26.402,87.441,25.233,87.515z M40.144,95.256c4.73-1.005,7.244-4.226,10.036-7.169
	C45.143,88.787,42.707,92.085,40.144,95.256z M34.982,94.109c-0.038,0.708-0.044,1.382,0.287,1.721
	c1.972,0.443,1.459-1.599,2.007-2.581C36.159,93.183,35.789,93.865,34.982,94.109z M30.107,94.683
	c0.323,1.02,2.295,2.863,3.441,4.014C33.708,96.201,31.786,94.4,30.107,94.683z M39.57,99.844c0.691-0.117,0.624,0.524,1.434,0.287
	c-0.097-0.889,0.664-1.37,0-2.007C40.131,98.303,39.538,98.761,39.57,99.844z M39.57,103.859c0.056-1.403-1.367-2.827-2.293-2.294
	C38.481,101.888,38.735,103.164,39.57,103.859z"/>
<path id="tail" fill-rule="evenodd" clip-rule="evenodd" fill="#8E8E8E" d="M146.019,229.836
	c1.843-3.293,1.451-7.467,4.253-10.144c-1.951-5.314,0.566-12.456-1.19-17.85c-5.581-7.104-8.844-15.158-18.313-20.672
	c-6.54-1.742-14.517-9.215-22.234-9.344c-4.74-2.391-5.851-6.264-10.442-8.716c0.822-0.845,0.98-1.724,0.875-2.622l-13.398-3.715
	c-0.918,3.941,0.511,6.922-0.179,10.769c4.435,4.293,5.58,10.386,11.661,13.565c3.059,1.6,6.893-0.351,8.988,3.581
	c8.352,4.459,18.531,0.827,23.241,10.011c0.016-0.016,0.032-0.04,0.048-0.056c5.313,3.684,6.554,9.033,9.43,13.714
	c0.219,3.012,0.352,6.737,0.595,8.924c0.458,4.115-0.023,2.854-1.784,6.842c-0.958,2.169-0.414,2.49-1.011,4.998
	c-4.752,0.868-6.548,6.038-10.174,8.746c-3.121,2.331-7.487,2.479-9.936,5.592c6.499,0.946,11.777-1.092,17.849-1.189
	c1.552-4.234,4.654-3.161,6.396-4.908c1.079-1.082,1.013-3.38,1.935-4.611C143.782,231.208,145.359,231.014,146.019,229.836z"/>
<path id="head" fill-rule="evenodd" clip-rule="evenodd" d="M97.472,43.772c0.535-1.738,1.82-3.013,2.636-4.745
	c0.427-0.907-0.085-2.062,0.527-3.163c0.088-0.158,0.919,0.135,1.054,0c1.138-1.138-0.072-4.141,1.054-6.326
	c0.46-2.042-2.301-0.861-1.581-3.163c1.615-4.808-0.268-12.85-3.163-13.179c1.794-0.563-1.467-0.164-0.527-1.582
	c-2.545-0.618-4.976-1.35-7.38-2.109c-1.054,0-2.109,0-3.163,0c-0.185,1.748-3.039,0.827-4.745,1.055
	c0.384,1.366-0.935,0.686-1.582,1.054c-0.618,0.352-1.281,1.255-1.582,1.582c-0.126,0.137-0.995,0.396-1.054,0.527
	c-0.519,1.152-0.827,3.142-2.109,4.217c0.897,2.743-0.892,6.095,0.527,8.962c0.313,1.081-0.775,1.129-1.054,1.582
	c-0.946,1.531-0.426,7.538,2.108,7.907c-0.004,3.343,1.663,5.015,2.636,7.381c-0.073,1.442,0,3.03,0.028,4.574
	c5.784,0,11.567,0,17.351,0C97.434,46.848,97.482,45.281,97.472,43.772z"/>
<path id="lefthand" fill-rule="evenodd" clip-rule="evenodd" d="M48.444,162.387c0,0.703,0,1.406,0,2.108
	c0.292-0.001,0.598,0.427,0,0.527c0,1.582,0,3.163,0,4.745c1.689-0.587,0.766,1.453,1.054,2.109c0.34,0.773,1.165,1.388,1.582,2.108
	c1.717,2.963,2.549,3.994,5.272,5.272c0.889,0.417,1.863,1.629,3.163,1.055c1.271-2.915-0.635-3.773-2.109-5.272
	c-0.209-1.264,2.401,0.292,1.582-1.582c-2.101-2.298-7.697-3.892-5.272-8.962c4.103-0.588,1.296,5.734,5.272,5.272
	c0.51-3.004-0.042-7.001,0.527-11.071c-0.583-1.571-2.439-3.385-2.636-5.271c-0.003-0.026,0-0.059-0.002-0.086l-7.3,0.047
	C49.401,156.561,49.049,159.608,48.444,162.387z"/>
<path id="leftleg" fill-rule="evenodd" clip-rule="evenodd" d="M77.966,266.769c-0.655-4.448-0.532-11.164,0-16.87
	c0.378-4.063,1.837-7.811,2.109-11.598c0.236-3.3,0.347-6.908,0-10.016c-0.389-3.476-2.224-6.249-2.109-8.962
	c0.081-1.909,1.411-3.742,2.109-5.799c1.122-3.311,2.173-6.775,2.636-10.016c0.907-6.349,0.568-13.356,1.054-20.033
	c0.362-4.974,1.609-8.595,2.636-12.125c0.251-0.864,0.926-1.419,1.054-2.109c0.651-3.509-0.87-6.744,1.251-8.064
	c-8.606,0-17.214,0-25.946,0c-0.139,9.666,1.092,19.375,1.499,28.624c0.165,3.756-0.261,7.655,0,11.071
	c0.267,3.5,0.703,7.906,0,11.071c-0.04,0.179-1.018,1.319-1.054,1.581c-0.219,1.553-0.32,3.162-0.527,4.745
	c-0.7,5.356-0.902,12.773-0.527,17.924c0.336,4.62,1.522,7.449,2.636,10.543c1.147,3.185,1.97,6.1,2.636,9.489
	c0.206,1.047,0.852,2.048,1.054,3.163c0.227,1.25-0.202,2.894,0,4.217c0.229,1.505,0.946,2.374,1.054,3.69
	c0,0.005,0,0.009,0.001,0.014h8.544C78.039,267.129,77.993,266.952,77.966,266.769z"/>
<path id="leftfoot" fill-rule="evenodd" clip-rule="evenodd" d="M78.076,267.131h-8.544c0.485,5.946-1.242,9.267-1.055,14.221
	c-1.713,3.035-3.821,7.88-3.163,11.598c1.997,2.396,9.147-0.36,11.071,2.109c0.703,0,1.406,0,2.108,0
	c3.852-5.039-0.662-15.477,2.109-21.087C80.021,271.715,78.593,269.609,78.076,267.131z"/>
<path id="leftarm" fill-rule="evenodd" clip-rule="evenodd" d="M63.206,59.061c-0.579,0.161-0.702,0.913-1.055,1.054
	c-0.445,0.178-1.151-0.206-1.582,0c-0.532,0.255-0.158,0.816-0.527,1.054c-0.375,0.243-1.193-0.223-1.582,0
	c-0.473,0.272-0.18,0.809-0.527,1.055c-0.23,0.163-0.832-0.172-1.054,0c-0.169,0.131-0.374,0.985-0.527,1.054
	c-1.239,0.559-0.602,0.451-1.582,1.582c-0.556,0.642-1.48,1.414-2.109,3.163c-0.273,0.76-0.339,1.175-0.527,1.582
	c-0.833,1.808-0.954,7.004-1.581,11.071c-0.455,2.945-1.328,5.977-1.582,8.962c-0.679,7.999,2.443,17.859,0,24.25
	c-0.022,0.059-0.474-0.047-0.527,0c0,4.92,0,9.841,0,14.761c0.86,7.681,1.585,16.64,1.133,24.738l7.3-0.047
	c-0.078-1.132,0.57-3.103,1.056-5.186c0.668-2.862,1.689-6.271,2.108-7.908c0.793-3.09,1.359-6.058,1.582-8.962
	c0.47-6.125-1.221-12.901-0.527-17.924c0.251-1.819,1.187-3.558,1.582-5.272c0.479-2.085,0.816-4.216,1.054-6.326
	c0.477-4.212,0.002-8.861,2.462-11.904V59.073C65.172,58.977,64.125,58.804,63.206,59.061z"/>
<path id="rightfoot" fill-rule="evenodd" clip-rule="evenodd" d="M96.944,273.985c1.323,2.833,1.249,6.558,1.055,10.093
	c-0.232,4.213-0.935,8.125,1.054,11.157c0.527,0,1.055,0,1.582,0c0.546-1.274,2.203-0.937,3.69-1.063
	c3.031-0.255,6.65,0.328,8.435-1.063c0.261-4.067-2.151-7.675-3.163-11.688c-0.401-1.588-0.221-2.972-0.527-4.782
	c-0.26-1.531-0.987-3.224-1.055-4.782c-0.055-1.262-0.022-2.642,0.064-4.02h-9.003C98.596,270.191,97.899,272.278,96.944,273.985z"
	/>
<path id="torso_2_" fill-rule="evenodd" clip-rule="evenodd" d="M89.547,161.675c8.446,0,16.896,0,25.46,0
	c-0.017-1.183-0.059-2.366-0.139-3.549c-0.483-7.106-1.735-14.24-2.636-21.181c-0.467-3.594-0.908-7.065-1.582-10.59
	c-1.088-5.692-2.958-12.318-2.108-19.062c0.338-2.684,1.821-4.979,2.108-7.414c0.377-3.183-0.984-6.486,0.821-9.663v-31.14
	c-0.779,0.046-1.592,0.116-2.402,0.031c-1.349-1.689-3.926-1.331-5.799-2.118c-0.276-0.116-1.359-1.249-2.108-1.588
	c-0.891-0.403-1.875-0.373-2.636-1.059c-0.845-1.509-1.042-3.669-1.073-5.996c-5.784,0-11.567,0-17.351,0
	c0.038,2.046-0.001,4.014-0.555,5.466c-1.042,0.297-1.677,1.004-2.636,1.589c-0.409,0.25-0.966,0.221-1.581,0.529
	c-0.527,0.265-0.453,0.806-1.055,1.059c-0.599,0.253-1.503-0.24-2.108,0c-0.402,0.159-0.438,0.861-1.055,1.059
	c-0.638,0.206-1.467-0.195-2.108,0c-0.218,0.067-0.929,1.037-1.054,1.06c-0.556,0.101-1.152,0.07-1.755,0.013v30.92
	c0.059-0.074,0.111-0.15,0.173-0.222c0.676,2.845,0.115,5.939,0.527,9.001c0.38,2.823,1.785,5.249,2.109,7.942
	c0.336,2.797,0.247,6.393,0,9.531c-0.381,4.851-2.015,9.228-2.636,13.237c-0.193,1.246,0.13,2.493,0,3.707
	c-0.127,1.188-0.88,2.072-1.054,3.177c-0.218,1.391,0.231,2.81,0,4.236c-0.177,1.092-0.94,2.186-1.054,3.177
	c-0.204,1.767,0.204,3.471,0,5.295c-0.171,1.529-0.884,3.176-1.054,4.766c-0.277,2.585-0.408,5.184-0.445,7.785
	c8.732,0,17.34,0,25.946,0H89.547z"/>
<path id="rightleg" fill-rule="evenodd" clip-rule="evenodd" d="M114.869,217.214c-0.534-4.251-1.989-8.374-2.109-12.652
	c-0.121-4.325,0.85-9.076,1.055-13.707c0.122-2.77-0.122-5.222,0-7.907c0.328-7.214,1.297-14.485,1.193-21.771
	c-8.565,0-17.015,0-25.46,0c-0.42,6.732,3.544,13.287,4.234,20.189c0.345,3.453-0.188,6.715,0,10.017
	c0.262,4.613,0.837,9.052,1.581,13.18c0.378,2.097,0.957,3.871,1.582,5.798c0.155,0.479-0.146,1.101,0,1.582
	c0.06,0.195,0.949,0.788,1.055,1.054c0.236,0.598-0.27,1.527,0,2.108c0.066,0.144,0.933-0.121,1.054,0
	c0.145,0.146-0.063,0.847,0,1.055c1.219,3.978-0.545,6.774-1.054,10.543c-0.634,4.696-0.587,10.769,0,15.815
	c0.141,1.212,0.831,2.482,1.054,3.691c0.273,1.478,0.41,2.896,0.527,4.217c0.565,6.365,0.531,12.606-0.504,17.625h9.003
	c0.187-2.943,0.625-5.874,0.99-7.608c0.707-3.35,1.343-5.824,2.108-8.435c0.646-2.203,1.489-4.98,2.109-6.326
	c0.609-1.322,1.346-3.058,1.582-4.217C116.454,233.672,115.85,225.026,114.869,217.214z"/>
<path id="rightarm" fill-rule="evenodd" clip-rule="evenodd" d="M128.048,153.952c-0.521-11.855,1.063-24.356,1.582-33.739
	c0-1.406,0-2.812,0-4.217c-3.448-6.722,0.211-18.428-1.055-28.995c-0.235-1.966-1.25-3.793-1.582-5.799
	c-0.938-5.678-0.507-10.024-2.635-14.233c-0.155-0.304-0.266-1.239-0.527-1.582c-0.135-0.177-0.894,0.16-1.055,0
	c-0.189-0.189-0.62-1.557-1.054-2.109c-0.569-0.723-0.984-1.201-2.636-2.109c-0.661-0.363-0.589-0.082-1.054-0.527
	c-0.748-0.717-1.437,0.007-3.163-0.527c-0.689-0.213-0.499-0.88-1.582-1.054c-0.567-0.091-1.249-0.018-1.883,0.02l-0.005,31.25
	c0.075-0.132,0.22-0.562,0.307-0.693c-0.563,0.932,0.97,0.872,1.054,1.055c0.268,0.577-0.2,1.5,0,2.108
	c1.471,4.471,1.086,11.553,2.109,15.815c0.433,1.804,1.363,3.456,1.582,5.271c0.83,6.877-1.301,15.2,0,20.56
	c1.668,6.871,3.363,13.111,4.214,20.007h7.413C128.068,154.286,128.055,154.122,128.048,153.952z"/>
<path id="righthand" fill-rule="evenodd" clip-rule="evenodd" d="M120.664,154.454c0.001,0.009,0.002,0.017,0.003,0.026
	c-0.918,1.542-1.935,2.985-2.636,4.745c-0.402,1.67,0.464,3.589,0.527,5.271c0.07,1.875-1.611,4.813,0.527,5.272
	c2.117,0.696,1.533-5.836,5.272-5.272c0.611,2.183-0.054,3.785-1.055,5.272c-0.961,1.426-3.359,2.94-4.745,3.163
	c-0.285,2.677,1.867,0.01,1.582,2.109c-0.762,0.819-1.751,1.412-2.108,2.636c-1.013,0.678,1.244,1.09,0,2.636
	c2.429,0.076,4.897-1.154,5.799-2.109c0.48-0.508,0.492-1.416,1.055-2.108c0.79-0.974,1.955-1.952,2.635-3.163
	c2.897-5.156,0.964-10.89,0.556-18.477H120.664z"/>
</svg>
